<?xml version="1.0" encoding="utf-8" ?>
<svg xmlns="http://www.w3.org/2000/svg" xmlns:xlink="http://www.w3.org/1999/xlink" width="1024" height="1024">
	<path fill="white" d="M0 0L0 1024L1024 1024L1024 0L0 0Z"/>
	<path d="M183.511 435.268C174.324 431.065 167.376 426.699 161.727 418.104C153.186 405.109 148.769 387.124 151.989 371.75Q152.196 370.788 152.449 369.837Q152.702 368.886 153.001 367.948Q153.299 367.01 153.642 366.087Q153.984 365.165 154.371 364.26Q154.758 363.355 155.187 362.469Q155.617 361.584 156.088 360.72Q156.559 359.856 157.072 359.016Q157.584 358.175 158.136 357.36Q158.687 356.546 159.278 355.758Q159.868 354.97 160.495 354.212Q161.122 353.454 161.785 352.726Q162.448 351.999 163.145 351.304Q163.842 350.609 164.571 349.948Q165.301 349.288 166.061 348.662Q166.821 348.037 167.61 347.449Q168.4 346.862 169.216 346.312C163.049 362.099 159.448 377.127 166.482 393.427C169.975 401.522 175.266 408.26 183.705 411.55C186.994 412.832 190.413 413.405 193.874 414.023C182.833 406.597 174.79 398.389 172.151 384.881C170.624 377.069 172.161 370.966 174.899 363.632C175.434 374.946 177.841 384.332 186.527 392.209C188.972 394.426 191.59 396.08 194.551 397.525C188.639 391.634 185.137 384.885 185.18 376.358C185.206 371.319 186.522 366.875 188.348 362.229C189.269 372.859 192.693 382.596 201.131 389.633C201.641 390.059 202.136 390.392 202.726 390.695L202.944 390.913L202.726 390.695C198.076 379.522 196.925 371.89 200.137 360.148C186.945 358.423 177.355 353.578 169.059 342.88C157.124 327.487 150.695 303.723 153.32 284.423C155.07 271.556 162.09 257.955 172.599 250.093C180.359 244.287 191.223 241.2 200.861 242.623C208.29 243.72 214.822 247.778 222.044 249.688C208.789 238.893 197.374 229.518 195.601 211.499C194.053 195.764 197.501 180.461 207.7 168.122C214.09 160.392 222.927 155.144 233.02 154.26C237.62 153.857 242.103 154.44 246.613 155.31C242.438 134.436 245.941 112.958 257.762 95.0451C266.261 82.165 278.551 72.4323 293.859 69.3031C303.251 67.383 312.832 67.954 322.314 68.7377C328.625 57.0796 336.771 47.9195 349.825 44.009C362.503 40.211 375.066 43.0835 387.916 43.6172C396.04 43.9547 404.298 43.3808 412.372 42.4277C431.341 40.1887 434.703 36.2225 450.631 28.4057C474.389 16.746 501.887 17.6008 526.31 26.7553C533.486 29.4454 540.26 33.1699 547.198 36.4108C575.453 31.4126 596.25 32.5588 620.578 49.7171Q626.042 53.6499 631.359 57.7785C648.929 49.5857 666.25 47.2581 684.884 53.9312C701.629 59.9279 716.951 72.8534 724.493 89.0913C728.207 97.0877 729.966 105.423 730.04 114.225C741.842 108.981 757.331 111.034 769.106 115.542C782.719 120.754 793.233 130.812 799.124 144.161Q799.707 145.455 800.225 146.776Q800.743 148.097 801.194 149.442Q801.645 150.788 802.029 152.154Q802.413 153.52 802.728 154.904Q803.043 156.287 803.289 157.685Q803.535 159.082 803.711 160.49Q803.886 161.899 803.992 163.314Q804.097 164.729 804.132 166.147Q804.167 167.566 804.131 168.985Q804.095 170.403 803.989 171.818Q803.882 173.233 803.705 174.641Q803.528 176.049 803.281 177.446Q803.034 178.844 802.718 180.227Q802.402 181.61 802.017 182.976Q801.632 184.342 801.18 185.687Q800.728 187.032 800.209 188.353C798.034 193.847 794.922 198.485 791.486 203.262C798.521 198.992 806.965 198.766 814.827 200.638C824.099 202.846 832.303 208.32 837.287 216.501C845.273 229.609 845.391 246.916 841.826 261.438C838.84 273.602 832.116 283.01 824.208 292.465C836.819 297.468 847.186 303.4 852.88 316.353C860.183 332.966 856.449 352.609 849.918 368.901C845.791 379.195 838.252 386.2 828.048 390.445Q824.823 391.764 821.503 392.82C819.182 393.084 816.853 393.315 814.539 393.622C814.222 402.998 812.401 411.572 805.062 418.195C799.582 423.14 792.846 424.855 785.777 426.132C795.627 426.857 806.444 427.476 814.456 420.544C817.231 418.143 819.102 415.137 820.928 412.008C821.1 419.181 819.225 424.886 815.48 430.949C809.979 437.661 804.097 441.41 795.328 442.345C792.739 442.621 790.094 442.609 787.492 442.648C796.62 444.66 805.242 445.069 813.459 439.703C820.536 435.083 825.762 427.015 827.379 418.74C828.953 410.69 827.305 401.011 822.608 394.211C822.266 393.715 821.897 393.275 821.503 392.82C828.338 394.994 833.491 399.022 836.767 405.539C841.287 414.53 840.099 425.496 836.903 434.706C832.622 447.04 824.795 456.282 812.944 461.973C810.087 463.345 807.091 464.217 804.048 465.074C808.79 471.064 810.23 477.708 809.357 485.215C808.021 496.698 802.403 506.857 793.275 513.987C781.758 522.985 761.364 527.509 746.983 526.685C745.033 537.972 739.333 550.569 729.656 557.299C724.995 560.539 720.857 561.102 715.406 561.599C721.449 588.348 724.254 593.967 708.896 619.318C711.659 626.648 712.532 632.697 709.073 640.131C706.948 644.698 703.67 648.399 699.67 651.417C701.695 655.516 703.033 659.498 701.652 664.046C701.038 666.067 699.854 667.765 698.647 669.471C721.568 679.387 748.162 697.815 757.685 721.682C763.04 735.103 766.273 745.354 780.478 751.432C791.373 756.093 803.674 757.218 815.004 760.595C822.632 762.869 830.233 765.445 837.449 768.819C851.096 775.199 879.145 792.44 886.217 805.219C881.825 802.355 877.518 799.618 872.66 797.584C851.9 788.893 827.049 791.389 805.502 795.952C791.985 798.814 780.48 804.021 768.224 810.108C757.867 815.252 747.411 820.485 738.265 827.641C716.333 844.8 699.953 871.681 683.939 894.276Q672.605 909.98 660.349 924.975Q653.473 933.316 646.008 941.135Q638.543 948.953 630.529 956.208C626.619 959.794 620.604 963.415 617.3 967.231L617.003 967.436L617.3 967.231C622.333 965.711 627.434 961.659 631.724 958.695C642.899 950.974 653.559 942.637 663.332 933.18C670.02 926.709 675.946 919.557 682.153 912.64C697.899 895.094 713.348 876.795 730.183 860.281C726.597 866.442 722.038 872.121 718.094 878.065C707.743 893.663 697.422 909.296 686.64 924.603C682.877 929.947 678.551 934.902 674.855 940.269L674.576 940.498L674.855 940.269C682.041 935.503 688.765 928.04 695.159 922.195C702.469 915.513 709.762 908.949 716.504 901.682C725.302 892.199 733.363 882.029 742.231 872.615C772.781 840.183 810.567 808.366 857.092 805.184C872.565 804.125 882.547 808.165 893.996 818.239C881.649 819.563 869.524 823.728 858.081 828.396C821.13 843.469 788.751 869.337 759.626 896.159C751.446 903.692 743.776 911.775 735.656 919.378C723.033 931.198 709.503 942.598 695.761 953.1C683.612 962.386 670.187 970.262 656.442 976.924C602.561 1003.04 547.577 1005.33 488.68 1004C460.999 1003.38 433.616 1002.29 406.126 998.605C327.838 988.111 245.087 944.003 181.221 898.639C165.875 887.738 146.853 874.887 135.388 859.855C172.654 840.137 209.869 820.167 245.239 797.158C247.65 785.705 250.198 774.538 254.108 763.481C266.019 729.803 288.051 700.665 315.193 677.841C315.376 672.435 314.507 666.957 314.521 661.509C307.61 657.354 302.276 651.399 298.999 643.996C295.49 636.069 295.8 628.748 298.883 620.812C295.011 618.277 291.906 615.256 289.876 611.027C284.729 600.306 290.384 588.5 294.004 578.23C281.215 573.133 275.827 564.284 269.995 552.402Q265.914 552.566 261.831 552.505C249.167 552.2 236.994 547.192 228.28 537.897C219.629 528.67 218.32 518.029 218.756 505.876C212.551 504.173 206.391 502.557 200.759 499.351Q199.742 498.779 198.755 498.157Q197.769 497.534 196.814 496.863Q195.86 496.192 194.94 495.474Q194.021 494.756 193.138 493.993Q192.256 493.23 191.413 492.423Q190.57 491.616 189.769 490.769Q188.967 489.921 188.21 489.034Q187.452 488.147 186.739 487.223Q186.027 486.299 185.362 485.341Q184.696 484.382 184.08 483.392Q183.464 482.401 182.898 481.381Q182.332 480.36 181.818 479.313Q181.304 478.266 180.844 477.194Q180.383 476.122 179.976 475.029Q179.57 473.935 179.219 472.822Q178.868 471.71 178.573 470.581C175.05 457.582 176.914 446.788 183.511 435.268ZM414.283 58.6257L414.002 58.8748L414.283 58.6257C418.243 57.5104 422.079 55.8273 426.092 54.9449C445.594 50.6569 464.34 55.5909 481.453 65.1228Q484.335 66.7251 487.04 68.612C466.912 62.9968 445.663 60.1208 424.915 63.9755C418.095 65.2425 411.261 68.8343 404.242 68.3968C395.353 67.8428 387.959 61.8393 380.335 57.8997C369.948 52.5322 357.424 51.857 347.064 57.659C339.077 62.1317 333.369 70.1735 330.955 78.9255C328.99 86.0512 329.158 93.8182 329.842 101.118C331.913 88.7077 335.679 77.7372 345.229 69.1418C342.163 76.0338 341.386 82.5629 344.05 89.8293C346.488 96.4801 351.468 101.699 357.89 104.636C360.756 105.947 363.886 106.635 366.966 107.23C359.204 102.688 353.14 97.448 350.829 88.2718C350.05 85.1811 349.869 82.0362 349.733 78.865C356.125 89.4937 359.442 94.4583 371.928 98.5699C359.707 89.461 357.605 82.1098 355.343 67.5662C359.632 74.9353 363.305 84.8574 372.409 87.3639C378.824 89.1303 385.157 86.0935 390.937 83.645C383.175 82.8575 377.152 81.3742 371.863 75.1015C370.121 73.0365 368.842 70.673 367.534 68.3236C381.539 77.157 390.597 72.5322 405.499 70.5828C411.995 69.733 418.712 69.7 425.246 70.0591C458.741 71.8997 491.284 87.3969 510.95 115.005C516.884 123.337 521.689 132.886 523.959 142.901C525.053 147.728 524.066 153.25 525.336 157.757C527.962 153.726 524.426 134.013 523.248 128.442C518.7 106.928 509.169 93.1012 495.821 76.2492C496.182 76.414 496.547 76.5698 496.895 76.7601C501.476 79.2674 505.74 83.0477 509.624 86.52C522.941 98.4244 534.925 112.417 540.479 129.707C546.643 148.897 542.944 165.271 533.986 182.674Q534.992 181.779 535.951 180.834C546.72 170.199 554.444 156.83 554.391 141.407C554.322 121.653 545.133 102.258 532.223 87.6983C528.289 83.2614 523.79 79.3484 519.574 75.1845C540.151 87.0392 556.629 106.455 562.911 129.506C566.479 142.601 566.846 156.862 562.838 169.91C561.737 173.494 560.072 176.755 558.83 180.245L558.56 180.498L558.83 180.245C560.68 178.536 562.015 176.405 563.187 174.196C573.88 154.063 570.098 131.725 563.788 111.02C574.752 128.508 584.308 154.937 580.619 175.677C578.58 187.142 572.068 196.831 562.47 203.384C547.539 213.578 532.472 213.308 515.435 210.124C525.738 215.459 535.677 219.13 547.487 218.168C562.529 216.944 576.293 209.276 585.897 197.774C597.303 184.114 602.872 167.078 601.123 149.304C598.772 125.415 587.035 107.25 568.837 92.3417C581.901 96.4836 593.344 110.723 599.419 122.421C609.478 141.791 612.958 164.288 606.152 185.296C600.736 202.014 588.631 217.03 572.84 224.919C567.294 227.689 561.059 229.813 554.867 230.445C552.56 230.681 549.659 230.276 547.519 230.908C553.955 233.879 568.692 229.404 575.167 226.976C592.893 220.328 605.084 206.327 612.623 189.271C621.4 169.415 616.875 148.407 609.234 128.952C605.618 119.747 601.162 112.211 595.316 104.304C597.021 104.957 598.567 106.036 600.001 107.153C616.034 119.641 621.184 132.693 623.517 152.31C624.503 143.715 625.23 134.9 623.747 126.317C621.164 111.375 609.077 93.0306 596.797 84.3839C596.868 84.4013 596.94 84.4166 597.011 84.4362C610.798 88.2398 622.003 99.5741 628.83 111.654C624.605 93.9718 615.643 76.2567 603.363 62.922C606.036 70.0079 608.042 77.3606 610.278 84.595C601.276 72.2644 595.475 60.493 581.161 53.5611C588.997 63.4009 590.993 72.2627 592.153 84.546C586.169 73.6465 580.026 64.8533 570.051 57.2672C565.663 53.9303 561.014 50.9455 556.809 47.3721L556.227 46.8738C559.834 53.1069 561.806 60.0807 565.324 66.3666C567.222 69.7592 569.968 72.813 572.353 75.8817C576.229 80.869 578.911 85.6379 581.304 91.481C574.42 84.348 566.243 79.4276 558.57 73.2852C553.238 69.0161 548.183 63.2265 542.197 60.0166C550.164 69.4697 554.559 80.1804 558.099 91.9307C556.423 89.745 554.606 87.7849 552.541 85.9663C536.184 71.5603 511.351 59.2776 489.077 60.6031C496.834 55.5186 508.411 56.0938 517.155 57.9305C522.739 59.1037 527.767 61.7404 533.182 63.1208L533.497 63.3751L533.182 63.1208Q532.412 62.4437 531.618 61.7959C514.901 48.198 487.851 44.4859 467.03 46.6979C470.057 45.8206 473.094 44.9132 476.162 44.1878C493.216 40.155 512.651 41.6352 528.684 48.802C534.617 51.454 540.099 54.9251 545.618 58.3291C530.799 43.9122 509.873 36.5678 489.366 36.4438Q484.589 36.4098 479.84 36.921Q475.09 37.4321 470.43 38.4818C461.642 40.4273 453.783 44.1553 445.336 47.0375C435.821 50.2844 421.761 51.2876 414.283 58.6257ZM668.831 68.7876C677.984 72.0783 686.005 77.7835 690.211 86.7756C693.889 94.6405 695.397 103.864 692.317 112.184C685.61 130.302 665.128 136.859 653.266 150.484C647.382 157.242 642.897 164.582 639.893 173.03C637.953 178.485 636.836 184.222 635.206 189.775C630.664 205.243 622.209 215.744 608.022 223.302C626.339 220.228 636.756 201.085 651.646 191.979C672.689 179.11 706.334 191.407 722.006 169.067C723.45 167.008 724.933 164.767 725.709 162.361L725.898 162.02L725.709 162.361C711.889 174.783 700.68 168.941 684.542 169.452C678.267 169.65 672.884 171.132 666.973 173.171C678.589 165.114 689.828 163.489 703.774 163.558C695.927 158.433 687.845 156.215 678.47 157.167C660.365 159.007 649.262 172.387 638.468 185.576C647.088 156.848 653.683 153.016 677.828 137.604C684.204 133.533 690.494 128.921 695.492 123.194C701.358 116.473 705.066 108.201 704.313 99.1376C703.436 88.5826 697.571 78.9695 689.536 72.2677C674.582 59.794 655.666 61.182 637.505 62.7566C646.198 72.1118 658.277 84.3588 659.26 97.9088C660.144 110.093 652.13 120.004 644.808 128.756L644.503 128.981L644.808 128.756C645.092 128.577 645.379 128.406 645.658 128.22C653.593 122.946 660.819 109.785 662.33 100.52C663.619 92.6125 661.236 85.0264 656.517 78.7055C655.103 76.8113 653.364 75.1201 651.682 73.4638L651.773 73.2271C656.921 73.7351 662.545 78.3174 665.755 82.188C671.365 88.9529 673.753 97.3608 672.878 106.08C671.612 118.707 666.225 126.438 658.279 135.696L658.003 135.924L658.279 135.696C663.264 133.895 668.495 128.697 671.899 124.728C679.179 116.239 684.111 105.318 683.133 93.9495C682.177 82.8331 677.079 75.8391 668.831 68.7876ZM443.197 109.718C411.529 97.9387 394.3 107.247 365.225 119.283C390.313 116.095 411.493 113.752 432.888 130.339C447.09 141.35 455.536 157.313 457.693 175.044C458.444 181.213 458.319 187.547 459.385 193.661C461.511 205.856 470.149 225.836 480.046 233.66C480.265 233.833 480.491 233.998 480.713 234.168L480.933 234.387L480.713 234.168C473.701 222.657 469.24 212.185 469.295 198.356C469.322 191.535 471.216 185.062 472.014 178.343C473.896 162.499 466.794 147.155 456.618 135.38C452.542 130.664 447.567 126.769 443.008 122.536C460.383 132.966 475.174 146.785 480.185 167.139C482.042 174.68 482.233 182.58 483.354 190.254C486.301 210.424 496.839 225 514.065 235.596C518.321 238.214 523.44 240.971 528.432 241.699L528.997 241.998L528.432 241.699C524.71 238.825 520.628 236.537 516.982 233.464C507.298 225.3 498.038 213.417 498.966 200.059C499.732 189.027 502.434 181.453 501.315 169.647C498.761 142.694 481.129 124.195 461.281 107.823C478.251 115.115 495.139 127.151 505.316 142.701C509.224 148.672 512.155 155.258 515.209 161.691C513.487 153.637 511.021 145.498 507.534 138.025C497.923 117.428 478.289 103.69 457.388 96.1841C433.919 87.7559 409.314 86.7469 386.47 97.5862C391.039 96.5295 395.584 95.524 400.277 95.2262C415.195 94.2794 431.916 99.8731 443.197 109.718ZM313.296 125.634C314.967 128.102 316.572 130.372 318.942 132.247C331.576 142.241 350.206 137.831 364.735 135.909C355.549 141.933 329.595 147.593 318.881 145.356C313.444 144.221 309.557 141.272 305.896 137.254C309.802 145.235 314.282 150.364 322.867 153.356C334.501 157.41 348.82 155.736 359.768 150.372C362.901 148.837 365.791 146.867 368.688 144.935C357.497 156.82 330.605 171.389 314.171 171.914C309.49 172.063 305.189 171.243 300.729 169.854L300.394 169.393L300.002 169.109L300.394 169.393L300.729 169.854C309.175 176.927 320.873 178.535 331.522 177.597C349.642 176.002 371.579 162.245 387.885 175.757C399.767 185.602 408.425 208.242 421.595 216.279L421.895 216.436L421.595 216.279C418.882 211.374 416.7 206.583 415.096 201.204C411.903 190.491 410.774 179.793 403.92 170.531C396.9 161.043 387.06 155.379 375.475 153.613C380.424 153.471 385.104 153.569 389.965 154.644Q391.15 154.903 392.317 155.232Q393.484 155.562 394.63 155.959Q395.775 156.357 396.895 156.822Q398.015 157.286 399.106 157.817Q400.197 158.347 401.254 158.941Q402.311 159.534 403.332 160.19Q404.352 160.845 405.332 161.56Q406.311 162.275 407.247 163.046C425.8 178.092 425.038 202.657 437.206 221.621C445.693 234.849 457.811 241.216 472.814 244.564C451.617 235.499 438.8 221.137 434.363 198.269C432.587 189.112 431.664 180.184 428.583 171.3C426.54 165.411 423.711 159.665 419.429 155.07C410.195 145.159 396.613 142.683 383.693 142.319C391.723 140.531 400.85 142 408.502 144.76C425.792 150.998 435.352 165.553 440.402 182.668C442.399 189.439 443.843 197.269 446.968 203.609C447.092 203.862 447.223 204.111 447.351 204.362C443.68 180.603 443.565 152.959 422.915 136.753C395.479 115.222 371.581 130.965 342.75 134.176C329.855 135.612 323.49 133.854 313.296 125.634ZM317.357 80.9346C315.414 80.5276 313.461 80.117 311.497 79.8214C300.792 78.2095 290.517 80.8738 281.838 87.3319C273.101 93.8331 267.805 103.536 266.297 114.269C264.709 125.569 267.61 141.493 274.636 150.699L274.9 150.998L274.636 150.699C274.328 148.205 273.438 145.631 272.848 143.179C271.363 137.011 271.048 131.034 272.052 124.748C274.286 110.758 282.509 99.0329 293.816 90.8424Q292.926 92.0206 292.095 93.2417C287.048 100.532 285.406 109.373 287.106 118.052C289.002 127.729 295.251 137.792 303.459 143.318C300.447 137.902 298.419 132.412 298.043 126.174C297.416 115.749 300.909 104.058 307.885 96.1879C309.681 100.839 308.005 108.221 310.827 113.773C313.04 118.126 317.193 119.977 321.583 121.385C320.259 120.154 318.996 118.933 318.069 117.364C311.894 106.917 314.442 91.9558 317.357 80.9346ZM338.293 225.648C338.59 224.646 338.972 223.778 339.432 222.841Q339.884 221.904 340.383 220.99Q340.881 220.076 341.424 219.188Q341.968 218.3 342.554 217.44Q343.141 216.58 343.769 215.75Q344.397 214.92 345.066 214.123Q345.735 213.325 346.442 212.562Q347.15 211.798 347.895 211.071Q348.639 210.343 349.419 209.654Q350.198 208.964 351.011 208.314Q351.824 207.664 352.668 207.055Q353.513 206.446 354.386 205.879Q355.259 205.313 356.16 204.791Q357.06 204.268 357.985 203.791Q358.91 203.314 359.858 202.883Q360.806 202.453 361.773 202.07Q362.741 201.687 363.727 201.352Q364.858 200.981 366.006 200.667Q367.154 200.352 368.317 200.094Q369.479 199.836 370.652 199.636Q371.826 199.435 373.007 199.292Q374.189 199.149 375.377 199.065Q376.564 198.98 377.754 198.954Q378.944 198.927 380.134 198.96Q381.324 198.992 382.511 199.082Q383.698 199.173 384.879 199.321Q386.06 199.47 387.233 199.676Q388.405 199.883 389.566 200.146Q390.727 200.41 391.873 200.73Q393.02 201.051 394.149 201.427Q395.279 201.803 396.388 202.234Q397.498 202.665 398.585 203.15Q399.672 203.635 400.734 204.173L400.919 204.418L400.734 204.173C396.14 196.782 387.742 190.964 379.249 189.125C368.436 186.783 355.263 190.064 346.164 196.138C340.605 199.85 336.734 205.063 333.382 210.766C315.28 241.563 328.404 264.084 283.561 271.154C300.027 263.414 310.029 252.148 316.516 235.239C307.326 245.974 297.324 253.79 282.786 255.008C276.431 255.54 270.261 255.049 264.579 251.974C278.222 248.429 291.355 242.99 298.649 230.038C298.974 229.46 299.005 229.348 299.224 228.812L299.424 228.594L299.224 228.812C290.942 233.03 284.975 232.413 276.449 234.553C260.287 238.61 244.833 252.567 239.668 268.463C235.878 280.129 237.809 291.751 241.45 303.168C240.435 289.48 240.887 275.346 250.382 264.448C254.147 260.128 258.6 257.16 263.88 254.982C255.122 264.731 250.09 275.99 250.885 289.334Q251.128 293.094 251.966 296.768Q252.803 300.441 254.214 303.935C254.949 292.514 258.194 282.356 267.027 274.58C267.893 273.818 268.848 273.142 269.784 272.472C266.554 287.373 267.269 303.36 275.743 316.526C276.134 317.132 276.549 317.721 276.957 318.315L277.455 319.051L277.76 319.488C275.717 310.852 275.992 302.713 280.842 294.899C281.456 293.91 282.246 293.038 283.046 292.198L283.843 292.146C283.925 303.694 282.869 311.126 291.681 320.128C296.919 325.479 303.852 327.451 311.156 327.334Q312.363 327.32 313.568 327.245Q314.773 327.17 315.972 327.035Q317.172 326.9 318.363 326.704Q319.554 326.509 320.734 326.254Q321.914 325.999 323.08 325.685Q324.245 325.371 325.394 325Q326.542 324.628 327.67 324.198Q328.799 323.769 329.904 323.284Q331.009 322.799 332.089 322.258Q333.168 321.718 334.219 321.125Q335.271 320.531 336.29 319.885Q337.31 319.24 338.297 318.543Q339.283 317.847 340.233 317.102Q341.183 316.358 342.094 315.566Q343.006 314.775 343.876 313.938Q344.747 313.102 345.574 312.223Q346.507 311.243 347.404 310.231C335.833 318.764 328.088 322.678 313.305 320.5C306.134 319.443 299.554 316.021 295.254 310.065C293.92 308.218 292.979 306.225 292.132 304.12C302.465 309.896 311.218 311.02 322.664 307.803Q324.412 307.32 326.133 306.749C318.216 306.452 309.038 304.259 303.263 298.414C319.808 301.164 336.078 297.848 344.913 282.262C347.412 277.853 349.107 272.851 351.026 268.157C355.973 256.06 362.969 244.375 374.238 237.197C386.064 229.664 399.221 229.11 412.594 231.992C408.007 229.684 403.564 228.069 398.427 227.494C378.654 225.283 361.476 233.006 352.606 251.213C347.573 261.543 344.991 274.563 335.453 281.98C327.895 287.856 316.944 288.924 307.736 287.584C299.484 286.383 293.462 282.642 288.514 275.974C336.711 292.22 327.165 232.703 361.154 217.79C375.64 211.434 390.786 212.461 405.222 218.196L405.632 218.571L405.998 218.876L405.632 218.571L405.222 218.196C397.52 210.952 382.469 208.711 372.342 208.982C363.808 209.21 353.327 211.446 346.775 217.206C343.799 219.822 341.308 223.141 338.293 225.648ZM251.267 206.39C262.462 209.017 273.818 208.078 283.721 202.017C286.727 200.177 289.461 197.952 292.165 195.702C276.827 195.803 267.121 190.73 256.241 180.04C249.815 173.726 243.446 166.274 233.64 166.167C227.692 166.103 222.231 168.767 218.131 172.989C211.174 180.154 207.749 191.003 208.049 200.861C208.35 210.784 212.353 218.876 217.988 226.847C213.754 214.992 213.392 203.479 218.83 191.865C222.207 184.653 227.245 179.411 233.559 174.692C226.656 185.155 223.18 192.784 225.728 205.558C227.93 216.593 233.676 224.309 243.037 230.465C245.608 232.156 249.164 234.618 252.203 235.173L252.473 235.376L252.203 235.173C250.214 233.057 247.442 231.443 245.259 229.491C240.631 225.351 237.072 218.862 235.55 212.872C233.016 202.896 235.053 193.056 240.201 184.319C239.879 188.09 239.081 192.084 239.378 195.857C239.924 202.802 243.724 209.795 248.991 214.265C255.188 219.526 263.393 221.53 271.375 220.817C279.807 220.063 289.779 215.434 295.254 208.887L295.486 208.591L295.254 208.887C288.148 212.303 280.867 214.686 272.893 214.497C265.626 214.325 256.418 211.775 251.267 206.39ZM644.336 217.713L644.108 217.953L644.336 217.713L644.697 217.46C652.417 211.967 661.303 201.856 671.94 203.606C672.474 203.694 672.725 203.784 673.278 203.939C672.701 204.518 673.058 204.306 672.277 204.51C662.48 207.065 658.122 215.548 651.063 221.782C642.899 228.992 630.849 233.436 620.222 235.191C646.267 237.967 658.38 218.31 678.501 217.948C665.009 226.357 656.795 239.123 640.041 241.448C653.801 246.773 666.742 244.193 679.859 238.393C683.309 236.867 686.721 235.24 690.31 234.066C681.123 245.061 672.96 251.26 658.861 254.607Q660.276 255.159 661.717 255.641Q663.158 256.123 664.62 256.533Q666.083 256.944 667.564 257.282Q669.045 257.62 670.541 257.885Q672.036 258.151 673.544 258.342Q675.051 258.534 676.565 258.651Q678.08 258.769 679.598 258.811Q681.117 258.854 682.635 258.823Q684.154 258.791 685.67 258.685Q687.185 258.579 688.694 258.399Q690.202 258.218 691.7 257.964Q693.197 257.71 694.681 257.383Q696.164 257.056 697.63 256.656Q699.096 256.256 700.54 255.785Q701.984 255.314 703.404 254.773Q704.823 254.231 706.214 253.621C717.17 248.737 732.81 236.674 737.248 225.169C737.418 224.727 737.568 224.278 737.698 223.823L737.877 223.566L737.698 223.823C733.491 226.523 729.538 230.379 725.593 233.497C713.764 242.845 702.257 248.982 687.661 252.531C698.927 245.778 708.004 237.458 717.65 228.693C709.789 228.797 703.416 226.541 696.029 224.138C703.508 220.328 712.128 218.297 719.881 214.933C732.529 209.446 742.245 201.87 747.401 188.759C734.738 201.471 719.822 203.696 702.557 204.026C710.495 201.392 717.787 198.702 724.142 193.149C713.041 196.683 707.49 196.485 696.663 191.699C688.066 187.898 679.568 187.239 670.749 190.729C659.879 195.032 648.849 207.15 644.336 217.713ZM355.827 263.695L355.577 263.998L355.827 263.695C376.521 244.762 386.97 256.189 403.96 245.885C394.097 245.92 383.028 245.066 373.507 248.071C365.053 250.739 359.794 256.028 355.827 263.695ZM209.504 251.444C208.749 251.766 208.024 252.065 207.471 252.707C206.423 253.92 206.176 255.857 206.141 257.399C205.991 263.985 209.647 272.018 214.119 276.731L214.404 276.998L214.119 276.731C213.556 273.072 212.497 268.315 213.181 264.643C213.768 261.492 216.14 257.292 215.808 254.161C215.651 252.687 215.357 252.472 214.343 251.507C212.55 250.895 211.344 251.117 209.504 251.444ZM688.103 291.014L688.576 291.198C696.493 299.097 711.968 303.324 722.904 303.382C731.209 303.425 741.887 300.842 748.803 296.158C752.948 293.35 756.583 289.527 760.216 286.092C754.991 298.044 746.748 307.398 734.348 312.223C721.726 317.135 707.236 316.439 694.535 312.29L694.076 312.018L694.535 312.29C695.077 312.795 695.588 313.258 696.207 313.668C706.447 320.446 721.883 322.636 733.772 320.066C745.697 317.489 754.754 309.869 761.175 299.711C771.741 282.995 770.821 264.896 766.675 246.184C765.624 251.759 764.415 257.18 762.389 262.494C757.221 276.048 749.428 286.852 735.912 292.878C718.192 300.78 705.75 297.712 688.576 291.198L688.103 291.014ZM218.489 298.438C218.11 301.875 217.807 305.291 218.094 308.748C218.594 314.781 220.936 320.757 225.665 324.705L225.895 324.972L225.665 324.705C222.746 315.406 223.39 306.676 224.008 297.109C210.571 293.655 201.214 283.572 198.264 269.983C197.356 265.8 198.436 259.966 194.94 256.884C193.392 255.519 191.432 255.025 189.401 255.2C182.879 255.763 176.066 259.946 171.985 264.878C162.468 276.381 163.234 291.904 164.519 305.903C165.243 299.677 166.303 293.515 169.013 287.81C172.868 279.693 178.64 274.129 187.135 271.101C184.255 275.37 182.314 279.712 180.484 284.518Q179.194 288.325 178.364 292.258C175.961 303.788 178.184 314.081 184.682 323.814C184.265 318.39 184.597 313.203 186.268 308C189.492 297.955 195.606 292.72 204.781 287.932C203.679 289.364 202.566 290.808 201.665 292.378C197.242 300.09 195.708 310.032 198.281 318.613C200.759 326.881 205.984 331.203 213.183 335.224C211.553 331.329 210.216 327.479 209.788 323.251C208.779 313.274 212.297 306.058 218.489 298.438ZM702.072 331.029L702.309 331.22C707.063 337.1 716.657 341.438 723.402 344.408C737.109 350.445 754.051 354.508 768.503 348.7C782.464 343.09 791.904 330.74 797.696 317.278C798.94 313.617 799.414 309.745 799.87 305.924C792.412 318.217 780.181 332.56 766.153 337.365C748.346 343.465 719.113 339.331 702.309 331.22L702.072 331.029ZM557.566 332.181C577.017 318.936 605.249 313.654 628.232 318.035C636.077 319.53 643.33 322.617 650.702 325.582C652.744 304.152 653.79 287.382 643.907 267.506C667.641 287.371 673.222 299.729 676.905 329.842C677.841 337.491 678.446 345.542 680.582 352.965C682.966 361.248 688.104 368.169 691.057 376.177C697.525 393.718 700.462 417.522 702.167 436.163C703.028 445.575 703.159 455.331 701.866 464.71C698.41 489.786 680.983 542.968 664.967 562.212C660.434 567.659 655.058 572.35 650.281 577.572C641.064 587.648 635.03 601.17 636.175 615.042C636.862 623.374 641.576 632.182 647.899 637.612C647.956 637.662 648.015 637.708 648.073 637.756L648.375 637.925L648.073 637.756C646.571 632.128 645.243 627.311 645.436 621.393C646.069 601.924 654.915 596.68 667.675 584.466C670.389 581.868 672.607 579.04 674.04 575.536C675.951 570.859 676.745 565.512 678.027 560.618Q681.194 548.876 685.151 537.377C691.072 520.477 699.905 504.265 704.625 487.055Q706.722 479.295 707.85 471.337Q708.978 463.379 709.119 455.342C710.147 413.544 695.572 376.682 685.265 336.937C681.173 321.157 679.377 304.612 672.941 289.504C669.065 280.405 663.066 272.583 656.241 265.494C634.891 243.323 609.487 240.294 580.217 243.194C570.097 244.197 559.922 245.667 550.056 248.177C534.638 252.1 521.067 257.682 504.792 257.561C492.312 257.469 479.634 255.031 467.646 251.609C458.554 249.014 448.868 245.068 439.343 244.958C426.621 244.811 416.334 252.734 404.925 257.161C401.033 258.671 397.029 260.045 392.953 260.97C386.748 262.377 379.204 262.803 373.552 265.764C361.032 272.323 364.081 298.569 361.58 310.784Q361.003 313.554 360.141 316.249Q359.279 318.944 358.141 321.534Q357.003 324.125 355.602 326.583Q354.201 329.041 352.552 331.34C347.821 337.974 341.728 343.036 335.009 347.551C332.211 349.43 328.887 351.246 326.53 353.665C321.686 358.637 325.362 373.152 325.44 380.111C325.627 396.885 318.968 408.517 307.442 420.235C309.969 457.347 317.205 489.968 346.276 515.832C355.799 524.305 366.767 531.09 375.297 540.658C389.405 556.482 392.496 573.412 391.32 593.914L390.793 594.309L390.996 593.313L390.73 594.035C390.54 591.54 390.65 588.823 389.703 586.469C383.055 569.959 356.962 554.468 344.017 541.342C338.756 536.007 333.817 530.464 329.308 524.473C326.6 520.874 324.179 516.997 321.371 513.489L320.804 512.787L320.571 512.503L320.804 512.787C321.56 515.339 323.26 517.854 324.468 520.261C326.971 525.248 329.08 530.396 330.238 535.872C332.16 544.967 331.458 554.275 331.421 563.501C331.391 571.028 331.888 578.279 333.188 585.698C333.91 574.5 336.215 564.283 338.116 553.29Q339.25 565.76 341.635 578.052C342.845 584.151 344.439 590.161 345.4 596.309C347.966 588.688 350.588 581.726 354.941 574.923C353.411 588.414 355.562 601.411 358.446 614.527C359.679 606.756 362.481 599.139 366.253 592.253C366.132 605.003 367.954 616.915 370.09 629.413C372.666 622.074 374.985 614.445 378.451 607.476C378.47 607.899 378.495 608.321 378.51 608.744C379.032 623.842 386.273 637.18 393.697 649.952Q391.092 636.842 388.744 623.683C394.937 631.367 400.974 637.993 408.674 644.202C409.897 637.068 411.095 629.904 413.398 623.024C420.74 601.093 434.476 589.439 456.175 582.589C463.273 580.348 470.601 578.806 477.636 576.37C483.122 574.47 488.259 571.874 493.445 569.293C478.191 588.589 450.096 586.876 433.57 606.94C416.627 627.511 429.804 645.217 419.257 663.815C414.629 671.976 406.693 676.406 400.968 683.498C394.585 691.404 394.373 699.966 395.394 709.519Q395.703 707.689 396.093 705.875C399.327 691.191 414.044 685.572 420.942 673.216C428.102 660.39 427.49 645.019 435.744 632.535C440.454 625.412 446.755 620.418 453.896 615.918C450.069 616.85 446.36 617.789 442.878 619.685C431.907 625.66 429.241 637.804 426.041 648.839C426.48 628.167 432.394 611.123 451.118 600.543C458.994 596.093 467.473 592.813 475.491 588.642C481.334 585.602 487.527 582.264 491.923 577.231C493.436 575.499 495.705 572.867 495.259 570.351C494.284 564.843 478.61 563.706 473.971 562.15Q473.046 561.843 472.156 561.446Q471.266 561.049 470.42 560.565Q469.574 560.081 468.78 559.515Q467.986 558.95 467.253 558.308C463.229 554.731 461.286 549.753 461.016 544.448C460.648 537.217 462.943 529.978 467.964 524.672C471.585 520.845 476.655 518.046 482.011 517.948C486.461 517.866 490.442 519.757 493.476 522.964C497.489 527.205 500.454 534.526 500.418 540.393L499.675 540.051C499.013 534.905 496.282 529.281 492.514 525.678C489.697 522.985 485.946 521.433 482.021 521.688C478.391 521.925 475.328 523.793 472.97 526.495C468.981 531.067 467.003 537.72 467.666 543.729C467.992 546.681 469.047 550.12 471.51 551.996C476.68 555.934 484.558 548.698 491.71 551.325C503.147 555.526 507.971 566.72 522.136 565.038C529.434 564.171 537.083 560.751 541.522 554.763C544.117 551.263 545.373 546.642 545.183 542.309C544.807 533.766 538.923 527.603 537.667 519.531C536.889 514.53 537.784 508.395 537.951 503.259Q538.277 493.349 537.829 483.444C537.573 477.088 537.146 470.761 536.06 464.484C534.929 457.953 533.202 451.501 532.273 444.942C529.916 428.294 533.112 414.019 543.31 400.606C537.369 397.326 532.813 393.599 530.348 387.054C526.662 377.264 527.329 364.502 531.499 354.982C531.362 362.087 531.504 369.528 533.682 376.356C535.315 381.474 538.368 386.095 543.316 388.49C555.98 394.617 572.955 383.789 584.357 378.43Q593.766 373.976 603.552 370.424C621.396 364.127 643.325 361.6 660.957 370.139C670.715 374.865 675.093 382.276 678.552 392.221C678.799 389.486 679.06 386.638 678.957 383.893C678.592 374.189 673.169 366.139 666.143 359.842C645.327 341.187 614.989 344.067 589.273 345.585Q590.046 345.088 590.871 344.683C607.938 336.501 636.395 335.029 654.227 341.618C652.396 337.041 651.388 332.7 650.732 327.818C625.65 322.024 603.518 320.001 578.144 326.121C571.365 327.756 564.892 330.43 558.127 332.051L557.566 332.181ZM719.003 386.618L719.275 386.874C724.584 391.902 733.325 395.727 740.234 397.973C752.503 401.962 767.015 402.76 778.741 396.657C791.68 389.922 798.447 377.001 802.667 363.593L804.652 354.564C797.894 368.549 790.566 379.297 775.993 385.967C757.797 394.296 737.727 393.615 719.275 386.874L719.003 386.618ZM558.376 438.854C558.51 438.633 558.64 438.41 558.771 438.187C566.887 424.379 579.866 411.392 595.852 407.353C610.78 403.581 626.714 407.669 639.761 415.238C644.443 417.955 648.71 421.256 653.343 424.008L653.723 424.23L653.944 424.482L653.723 424.23C647.611 414.284 631.731 402.559 620.269 399.909C607.235 396.895 594.455 400.209 583.367 407.254C571.131 415.027 556.167 426.037 553.011 441.124C550.182 454.651 559.547 468.52 563.313 481.03C565.395 487.949 566.271 495.601 565.596 502.804C565.18 507.247 563.907 511.43 562.649 515.696C566.779 526.302 575.214 533.13 582.224 541.751C591.418 553.059 613.868 584.751 618.128 597.73C614.034 594.02 610.538 589.514 606.623 585.584C599.1 578.029 591.218 570.86 584.154 562.854C579.231 557.275 574.881 551.239 570.501 545.235C571.964 555.581 571.119 563.723 564.681 572.239C563.769 573.445 562.829 574.652 561.809 575.767C585.376 581.647 613.914 594.262 626.957 615.845C629.109 619.406 630.787 623.547 633.165 626.921L633.383 627.497L633.165 626.921C631.793 620.424 629.87 614.205 629.109 607.572C626.586 585.604 631.056 558.521 641.385 539.028C645.983 530.348 652.069 522.523 658.279 514.951C670.406 500.165 681.521 486.063 686.86 467.257C691.53 450.809 690.771 434.615 689.298 417.814C687.699 420.813 686.065 423.761 683.535 426.09C678.421 430.797 672.232 430.682 665.733 430.53C665.653 436.867 664.671 442.402 661.369 447.897Q660.88 448.695 660.353 449.468Q659.825 450.241 659.26 450.987Q658.695 451.733 658.095 452.451Q657.494 453.168 656.859 453.856Q656.223 454.543 655.555 455.198Q654.887 455.853 654.187 456.475Q653.487 457.096 652.758 457.683Q652.029 458.269 651.271 458.819Q650.514 459.369 649.731 459.881Q648.948 460.393 648.14 460.866Q647.332 461.339 646.503 461.772Q645.673 462.204 644.823 462.596Q643.973 462.987 643.105 463.336Q642.236 463.686 641.352 463.992Q640.468 464.298 639.569 464.561Q638.671 464.823 637.761 465.041C622.797 468.622 606.788 464.132 594.027 456.209C603.476 459.36 612.772 460.999 622.731 459.52C630.837 458.315 638.152 455.047 643.157 448.364C621.799 459.097 613.289 453.716 592.896 446.323C586.163 443.883 579.428 442.364 572.641 440.295L572.359 439.418L572.178 439.642C574.413 439.123 577.403 440.737 579.684 441.177C582.856 441.789 586.087 442.089 589.257 442.719C598.401 444.534 607.755 447.399 617.171 446.399C629.72 445.067 636.971 437.581 644.445 428.268C639.194 425.752 634.016 423.179 628.907 420.384C628.43 425.617 627.276 430.299 623.37 434.091C619.494 437.853 614.131 439.366 608.82 439.178C603.41 438.986 598.13 437.019 594.453 432.938C590.548 428.605 589.876 424.217 590.155 418.662C579.716 423.149 568.062 432.363 558.376 438.854ZM500.652 579.797L498.753 582.119C490.917 591.777 479.266 597.863 468.34 603.291C464.552 605.173 460.044 607.074 456.64 609.574C471.013 606.775 488.646 599.646 497.092 587.063C498.563 584.873 500.052 582.374 500.652 579.797L500.875 579.503L500.652 579.797ZM565.003 590.003L565.509 590.308C570.364 594.584 577.67 596.773 583.5 599.438Q585.657 600.412 587.722 601.568Q589.787 602.724 591.745 604.055Q593.702 605.385 595.537 606.879Q597.373 608.374 599.072 610.021C623.816 633.969 601.578 648.505 621.43 675.639C615.871 661.434 613.932 652.285 615.85 636.96C616.618 642.853 617.117 648.882 618.764 654.605C622.851 665.516 632.501 670.335 638.745 679.549C635.675 671.278 629.238 665.136 625.481 657.263C621.401 648.714 620.468 639.046 617.394 630.154Q616.203 626.648 614.472 623.374C604.156 603.821 585.595 596.468 565.509 590.308L565.003 590.003ZM499.42 599.272L499.126 599.477L499.42 599.272C499.658 599.079 499.903 598.894 500.133 598.693C504.601 594.779 506.718 588.047 507.101 582.31C506.086 584.639 505.374 587.032 504.255 589.339C502.644 592.659 500.534 595.732 499.42 599.272ZM535.095 606.922C538.672 607.603 542.144 608.615 545.766 609.089L545.997 609.374L545.766 609.089C545.152 608.66 545.397 608.79 544.763 608.492C542.686 607.516 540.585 606.613 538.683 605.312C533.237 601.584 531.356 596.877 530.144 590.642C527.658 596.072 524.697 601.643 520.773 606.177C514.797 600.158 512.378 595.555 511.253 587.154C511.17 587.419 511.089 587.685 511.003 587.949C507.509 598.59 500.994 603.273 491.406 608.096C485.264 610.574 478.704 612.033 472.693 614.666C476.465 615.471 498.679 608.176 504.696 607.279C504.913 607.246 505.131 607.219 505.348 607.19C510.154 609.055 517.248 615.61 521.78 615.789C526.625 615.98 531.782 610.021 535.095 606.922ZM326.175 610.692C322.002 614.724 319.564 622.104 319.497 627.833C319.439 632.832 321.448 637.404 324.983 640.911C327.208 643.118 329.632 644.439 332.518 645.578C327.391 646.659 322.089 647.521 317.356 644.519C314.543 642.735 313.269 639.933 312.601 636.763C310.727 627.87 315.461 621.468 318.043 613.494C318.902 610.841 319.181 607.933 319.476 605.171C318.371 606.662 317.29 608.124 316.35 609.727C312.235 618.369 309.407 632.189 312.678 641.393C314.085 645.351 316.722 649.147 320.645 650.92C323.877 652.381 327.387 652.02 330.582 650.656C333.298 649.496 335.221 647.736 337.193 645.589C332.248 644.552 327.832 642.754 324.859 638.403C321.605 633.64 321.52 627.716 322.654 622.252C323.475 618.296 324.787 614.478 326.175 610.692L326.48 610.503L326.175 610.692ZM562.503 613.04L563.034 613.312C566.769 615.83 581.871 621.855 586.466 622.75L586.997 622.997L586.466 622.75C582.19 618.902 568.937 614.517 563.034 613.312L562.503 613.04ZM654.126 634.003L654.397 634.312C655.558 641.945 659.641 648.327 659.814 656.438C660.333 680.736 640.688 693.374 643.899 720.574C644.482 719.708 644.404 718.18 644.507 717.135C645.589 710.624 647.049 704.928 650.054 699.005C654.837 689.58 662.299 681.268 664.442 670.673C666.866 658.688 660.88 644.11 654.397 634.312L654.126 634.003ZM695.877 644.689L695.613 644.99L695.877 644.689C697.936 642.303 699.656 639.165 700.489 636.129C703.421 625.439 696.086 618.703 691.98 609.953C690.725 607.279 690.433 604.302 689.018 601.689C688.965 602.601 688.892 603.349 688.685 604.245C687.518 602.182 687.091 600.248 686.589 597.965C686.509 596.329 685.974 594.821 685.505 593.264C685.11 608.242 688.527 612.329 695.294 625.121C698.867 631.877 697.946 637.715 695.877 644.689ZM443.47 666.606C446.682 663.467 449.237 659.776 452.598 656.759C449.895 668.426 446.366 670.198 440.13 679.387C435.036 686.893 430.596 695.34 428.2 704.125C426.488 710.401 425.642 717.436 426.557 723.911C428.144 735.141 435.86 743.89 438.496 754.741C441.847 768.535 436.142 783.961 443.781 796.617C450.177 807.215 462.108 810.44 473.318 813.335C468.53 809.953 463.459 806.993 458.62 803.689C445.737 794.892 439.042 783.353 441.832 767.4C442.678 762.561 444.225 757.556 443.471 752.608C442.062 743.357 435.381 734.26 433.355 722.915C429.072 698.922 437.48 685.902 450.724 666.968Q451.193 674.632 451.985 682.27C455.513 678.157 459.752 674.666 463.903 671.205C459.706 678.593 453.846 684.849 449.888 692.41C447.224 697.5 445.258 702.901 444.378 708.591C441.828 725.069 446.952 750.743 448.797 767.872C451.747 763.74 447.947 736.352 447.552 729.276C447.247 723.808 447.15 718.136 447.846 712.693C448.574 706.996 450.35 701.833 453.048 696.77C460.303 683.155 476.51 666.876 491.431 662.261C482.995 668.414 475.904 675.053 469.306 683.15C439.782 719.383 478.657 736.592 452.162 778.024C468.688 762.652 467.781 751.39 463.392 730.656C461.93 723.746 460.801 716.886 461.892 709.83C462.881 703.434 465.478 698.012 468.603 692.411Q470.599 689.171 472.871 686.119Q475.143 683.067 477.674 680.225Q480.204 677.383 482.974 674.773Q485.744 672.164 488.731 669.807C494.118 665.612 499.832 661.849 504.937 657.298L505.66 656.647C502.738 657.918 499.747 660.009 496.67 660.752C492.407 661.782 487.241 661.728 483.546 659.158C482.277 658.275 481.171 657.377 480.884 655.793L481.568 654.819C484.793 653.747 489.361 654.297 492.84 654.003C488.691 652.283 484.282 650.868 480.333 648.737C473.274 644.928 470.083 639.398 467.897 631.981C472.28 635.898 477.465 640.202 483.293 641.645C489.075 643.077 495.631 642.529 501.562 642.727C515.582 643.197 537.717 645.177 550.928 641.91C558.012 640.158 564.862 635.387 570.956 631.546L571.803 631.98C572.031 632.682 572.087 632.744 572.158 633.586C572.455 637.129 570.02 642.407 567.736 644.986C562.543 650.848 555.399 652.387 547.979 652.928C553.257 656.27 557.386 657.636 563.536 658.739C553.013 660.546 545.56 660.722 535.889 655.648C539.775 659.939 544.037 662.291 549.077 664.938C559.083 670.191 571.973 675.915 577.891 685.977C579.506 688.723 580.43 691.942 581.453 694.945C580.931 686.616 579.697 682.061 574.593 675.29C581.569 680.865 584.873 685.205 587.523 693.77C587.564 682.538 587.865 672.012 589.549 660.867C590.104 667.105 590.548 673.418 592.441 679.425C594.529 686.046 598.162 691.894 601.295 698.041C608.143 711.474 609.229 725.652 607.827 740.407Q608.509 738.029 609.114 735.629C612.373 722.77 612.739 709.81 606.647 697.716C604.609 693.67 601.941 689.937 599.639 686.039C590.892 671.23 590.954 655.882 595.158 639.631C580.733 634.452 555.865 620.863 541.107 623.833C534.258 625.211 528.166 629.068 521.359 630.666L520.595 630.841C511.645 628.391 503.845 622.637 494.345 622.176C483.252 621.638 458.475 630.015 450.401 637.643C442.246 645.348 443.671 656.321 443.47 666.606ZM538.003 671.089L538.287 671.295C540.749 674.286 545.028 675.889 548.29 677.913C552.533 680.545 556.603 683.663 559.957 687.377C568.877 697.253 570.506 709.217 569.859 722.059L570.397 722.012C572.695 712.313 571.809 700.155 567.109 691.258C561.656 680.935 549.004 674.692 538.287 671.295L538.003 671.089ZM675.383 682.161L675.126 682.497L675.383 682.161C677.29 679.429 678.844 676.305 679.99 673.176C687.425 652.881 678.105 638.571 670.074 620.822C665.382 610.452 667.592 603.296 671.335 593.425C668.848 596.757 666.843 600.085 665.522 604.039C662.654 612.624 664.287 620.635 668.219 628.524C669.875 630.96 671.254 633.574 672.691 636.142C669.463 633.856 666.49 631.061 664.338 627.724C659.474 620.182 660.084 612.294 661.981 604.012C660.588 606.166 659.711 608.79 659.119 611.28C655.831 625.11 668.124 632.757 674.423 643.102C680.036 652.32 680.583 662.639 678.043 672.937C677.308 675.917 676.184 678.774 675.475 681.76L675.383 682.161ZM345.836 677.828C345.778 680.705 345.995 683.274 347.187 685.93C348.612 689.107 351.027 691.396 354.247 692.674L354.498 692.9L354.247 692.674C353.352 691.168 352.03 689.866 350.992 688.442C348.578 685.128 347.179 681.667 345.836 677.828ZM702.827 699.384C713.109 701.704 723.81 709.333 729.499 718.195C735.196 727.07 735.363 736.796 733.086 746.782C730.52 758.035 725.087 769.149 719.005 778.896C706.115 799.55 687.484 820.301 671.546 838.8C657.249 855.395 640.669 875.53 624.453 890.057C619.245 894.723 613.456 898.624 607.527 902.306C583.327 917.339 558.163 930.459 532.839 943.456C507.283 956.572 450.534 988.245 422.16 981.581C395.522 975.324 361.958 934.189 347.982 911.074C323.244 870.157 302.954 789.973 314.925 743.07C318.473 729.17 325.033 716.704 330.682 703.636C327.898 700.303 324.887 697.016 322.446 693.424C290.983 739.415 281.025 772.651 291.477 828.107Q293.6 838.878 296.425 849.486C297.319 852.779 301.301 863.536 301.321 866.013C299.411 863.998 298.03 858.491 296.876 855.706C286.56 830.791 279.487 803.548 280.198 776.426C280.846 751.714 289.456 729.785 303.958 709.967C307.63 704.948 311.455 699.917 315.996 695.647Q318.372 693.408 321.016 691.493C320 688.421 319.027 685.328 317.845 682.315C290.335 712.339 268.308 748.22 258.426 787.947C255.649 799.113 253.647 810.685 254.152 822.233C255.929 862.831 291.137 910.359 320.034 936.699Q321.798 938.323 323.788 939.662L324.116 940.08L324.463 940.404L324.116 940.08L323.788 939.662C321.911 936.792 319.125 934.193 316.847 931.605Q311.68 925.765 307.251 919.347C288.734 892.43 266.61 845.076 268.354 812.148C270.909 826.028 275.849 838.808 281.309 851.759C296.955 888.875 318.319 926.315 347.656 954.308C379.212 984.418 419.218 993.252 461.575 992.055C479.497 991.549 497.109 989.143 514.139 983.355C550.144 971.118 589.672 940.032 616.623 913.385C631.742 898.436 645.82 882.183 659.881 866.24Q667.749 857.228 675.182 847.854C678.17 844.097 680.996 840.042 684.318 836.582L684.633 836.26C681.107 843.995 675.922 851.47 671.31 858.611C650.344 891.077 621.66 928.507 592.245 953.745C582.637 961.989 572.038 967.904 561.818 975.196C571.141 971.468 580.191 967.387 588.834 962.252C619.215 944.204 647.175 915.693 669.186 888.354C687.797 865.24 705.163 841.549 727.852 822.115C748.422 804.495 776.593 785.406 803.361 780.236C814.091 778.164 824.54 778.324 835.365 779.165C824.411 774.658 810.481 771.549 798.742 770.684C788.696 769.944 776.201 769.696 766.632 773.367C753.347 778.463 713.66 814.454 701.326 825.059C714.785 807.222 730.521 789.737 740.713 769.72C747.782 755.836 752.274 739.63 747.193 724.364Q746.563 722.433 745.75 720.572Q744.937 718.71 743.948 716.936Q742.958 715.162 741.802 713.492Q740.646 711.822 739.334 710.272C729.135 698.29 705.962 684.574 691.6 677.417C690.419 686.967 689.52 696.462 686.14 705.541C695.044 711.568 703.988 718.184 709.853 727.372C719.829 743.002 719.131 757.469 715.216 774.861C722.962 760.972 730.187 741.325 726.309 725.2C723.306 712.714 713.076 705.779 702.827 699.384ZM405.662 706.004C399.78 713.278 398.7 725.432 399.712 734.371C399.86 735.67 400.044 736.941 400.316 738.219L401.069 738.106C401.164 734.505 400.698 730.949 400.857 727.349C401.2 719.586 403.688 713.353 405.662 706.004L405.988 705.503L405.662 706.004ZM651.355 721.678L651.125 721.997L651.355 721.678C660.361 711.248 675.627 707.85 678.664 692.551C675.842 695.607 673.614 698.965 670.567 701.914C664.004 708.266 654.967 712.897 651.355 721.678ZM586.626 724.003L586.902 724.239C587.561 727.087 589.017 730.026 590.222 732.688C590.035 729.499 589.154 726.55 586.902 724.239L586.626 724.003ZM498.815 698.109C496.895 702.336 495.354 706.156 494.696 710.782C493.501 719.196 494.797 730.298 500.057 737.249L500.374 737.497L500.057 737.249C498.721 724.594 497.01 713.896 505.722 703.265C507.561 701.021 509.54 699.204 511.835 697.436C505.524 708.704 504.13 719.614 507.686 732.123C510.745 742.879 517.803 755.331 523.471 764.949L523.295 764.289C518.667 747.353 509.815 741.053 511.555 720.578C512.008 715.251 513.278 709.836 515.968 705.17C516.935 703.492 518.083 701.938 519.27 700.411C514.507 716.482 520.572 730.478 527.166 745.102C525.998 738.121 524.403 730.914 524.677 723.802C525.005 715.29 527.12 707.002 527.005 698.437C532.783 709.753 531.799 719.488 531.828 731.811C536.1 722.619 540.947 714.193 537.382 703.795C536.397 700.923 534.673 698.097 533.312 695.378C540.476 702.487 544.577 708.281 544.574 718.7C544.573 724.457 543.239 730.008 541.852 735.561C547.633 725.089 551.57 715.306 548.143 703.194C546.578 697.666 543.326 693.013 540.981 687.837C549.812 696.843 556.803 704.138 556.621 717.581C556.523 724.857 554.762 731.919 552.234 738.705C551.286 741.25 549.965 743.842 549.247 746.446L549.003 746.966L549.247 746.446C553.511 742.199 556.443 732.906 558 727.21C561.979 712.666 558.998 696.963 548.347 685.97C539.464 676.802 534.456 675.069 527.659 663.273L533.665 688.902C529.415 682.881 525.92 676.865 522.726 670.247C521.468 676.634 521.674 682.181 522.13 688.626C519.995 684.159 517.928 679.747 516.233 675.087C511.857 679.253 507.199 683.1 502.847 687.31C506.869 680.097 511.724 674.018 514.78 666.221C508.969 670.741 496.893 682.65 492.549 688.45C494.775 681.868 498.117 676.538 501.725 670.649C495.828 674.418 489.901 679.246 484.85 684.081C480.231 688.503 477.286 694.455 475.617 700.567C468.036 728.334 488.826 747.37 492.451 773.283C494.176 785.614 488.151 796.553 488.043 808.656C487.989 814.754 489.99 821.095 494.434 825.41C498.09 828.959 502.677 831.582 507.881 831.448C502.455 827.864 497.502 824.424 494.243 818.642C488.168 807.86 494.131 797.594 497.055 787.006C500.811 773.407 495.723 764.469 489.267 753.022C480.735 737.894 480.848 726.564 485.393 710.289C485.164 728.248 487.642 739.897 499.187 754.05C503.039 758.771 507.221 763.349 510.389 768.573C514.918 776.041 515.604 783.517 513.607 791.914C526.597 768.493 507.931 758.785 497.007 741.895Q496.257 740.725 495.583 739.509Q494.908 738.294 494.312 737.038Q493.717 735.782 493.202 734.492Q492.687 733.201 492.255 731.879Q491.823 730.558 491.475 729.213Q491.128 727.867 490.867 726.501Q490.605 725.136 490.431 723.757Q490.257 722.378 490.171 720.991C489.682 712.03 492.951 704.738 498.815 698.109ZM562.143 745.269C558.404 749.508 554.869 753.259 550.437 756.8C548.202 762.213 547.979 768.248 545.321 773.46C538.937 785.978 523.191 796.931 530.005 812.985C532.015 817.723 535.956 821.936 540.787 823.812C541.907 824.246 543.033 824.474 544.226 824.598L544.497 824.874L544.226 824.598C542.662 823.543 541.069 822.528 539.519 821.455C535.645 818.772 533.383 815.29 532.665 810.581C530.209 794.489 558.155 773.134 567.369 760.942C573.128 753.322 576.525 743.053 575.227 733.473L574.762 733.205C572.873 736.355 572.311 740.435 570.931 743.867C566.451 755.009 557.354 765.466 547.35 771.982C551.731 763.238 560.333 755.099 562.143 745.269L562.374 745.003L562.143 745.269ZM594.278 771.467L594.014 771.997L594.278 771.467C597.198 768.399 599.469 764.87 602.84 762.222C611.264 755.603 622.562 752.547 628.259 742.732C631.573 737.021 632.364 730.254 632.267 723.763C631.744 688.626 606.962 683.576 598.702 653.63C598.435 652.225 598.112 650.951 597.66 649.594C597.56 649.812 597.409 650.014 597.361 650.249C596.768 653.15 597.574 657.834 597.995 660.787C601.215 683.409 613.85 685.611 622.569 703.117Q623.708 705.437 624.599 707.863Q625.49 710.289 626.123 712.795Q626.756 715.301 627.123 717.86Q627.491 720.418 627.589 723.001C628.737 751.599 601.387 749.34 594.426 770.986C594.375 771.145 594.327 771.306 594.278 771.467ZM565.078 785.233C562.334 788.51 562.012 792.363 562.29 796.498C562.353 797.447 562.489 798.389 562.638 799.327C564.544 802.116 566.265 803.912 569.172 805.624L570.184 805.535C569.808 804.658 569.747 804.603 569.076 804.012C565.817 801.144 564.127 798.828 563.954 794.317C563.839 791.29 564.485 788.186 565.078 785.233L565.373 785.003L565.078 785.233ZM529.185 788.313C522.788 794.077 514.623 800.664 514.295 809.995C514.117 815.043 516.266 819.268 518.576 823.572C514.252 821.021 509.834 817.777 507.194 813.388C506.057 811.499 505.369 809.343 504.153 807.517L504.985 807.724L503.657 808.999C504.119 811.177 504.513 813.345 505.32 815.428C508.993 822.072 515.629 824.876 522.603 826.928Q524.888 827.59 527.193 828.175C522.479 824.912 518.645 821.161 517.527 815.25C516.133 807.881 519.593 801.987 523.714 796.277C525.5 793.803 527.999 791.122 529.185 788.313L529.423 788.039L529.185 788.313ZM547.096 800.951C547.038 803.104 547.019 805.097 547.852 807.122C548.914 809.699 550.677 811.147 553.196 812.195L553.497 812.376L553.196 812.195C550.866 809.644 549.095 807.326 548.253 803.869C547.972 802.714 547.708 801.97 547.096 800.951ZM730.04 114.375C728.347 129.231 724.08 139.975 714.207 151.12C721.1 148.794 727.469 145.89 730.877 138.988C733.767 133.137 733.224 127.061 732.965 120.768C743.409 139.898 745.099 151.535 739.973 172.691C747.333 160.135 748.669 147.969 747.212 133.744C758.695 147.648 760.836 166.726 759.409 184.119C758.513 188.853 756.978 193.041 754.961 197.404C763.445 190.362 769.938 182.199 770.95 170.858C771.783 161.53 768.897 152.31 763.807 144.554C761.761 141.437 759.284 138.481 757.739 135.077C771.959 145.383 779.911 153.498 787.033 169.604C784.074 151.828 779.192 138.396 764.099 127.532C754.059 120.306 742.421 115.512 730.04 114.375ZM802.885 209.077C794.889 211.215 788.654 215.446 784.499 222.738C778.815 232.716 778.454 243.68 780.195 254.774C783.06 246.81 786.248 240.008 791.207 233.138C787.074 246.469 785.792 259.591 787.971 273.41C795.931 260.154 800.401 246.941 800.082 231.349C806.501 241.326 808.351 251.829 805.801 263.467C805.129 266.53 804.143 269.456 803.031 272.384C800.437 278.019 797.101 282.901 793.481 287.919C805.724 277.375 814.253 266.061 815.445 249.387C816.266 237.897 812.858 228.599 808.183 218.344C820.147 229.423 826.201 236.416 828.78 252.934C831.741 243.184 830.051 230.679 825.261 221.755C822.247 216.14 817.456 211.679 811.244 209.9C808.59 209.14 805.639 208.705 802.885 209.077ZM752.451 219.319C753.649 235.649 752.856 254.651 741.482 267.649C734.189 275.983 723.933 279.753 713.072 280.444C706.6 280.856 700.191 280.187 693.841 278.96C697.513 280.554 701.163 281.916 704.982 283.116C718.344 286.043 734.488 286.553 746.469 278.841C753.692 274.192 758.378 266.591 760.118 258.251C762.32 247.703 759.265 229.275 753.303 220.356C753.058 219.989 752.76 219.633 752.451 219.319ZM823.267 299.147C820.264 311.741 817.293 324.143 813.26 336.46C819.078 345.213 821.38 355.832 821.466 366.215C827.094 356.418 830.332 345.261 827.418 334.026C826.921 332.11 826.315 330.215 825.716 328.329C824.199 325.156 822.532 322.387 820.393 319.59C832.847 325.387 838.036 332.795 842.665 345.471L843.599 348.067C845.934 334.475 845.756 322.9 837.562 311.194C833.892 305.95 829.155 301.733 823.267 299.147ZM795.903 332.001C783.613 347.933 768.761 361.838 747.903 364.621C738.584 365.864 729.781 364.22 720.851 361.631C722.533 362.606 724.204 363.645 725.954 364.492C739.783 369.998 753.431 372.467 767.543 366.305C780.745 360.54 790.683 348.048 795.558 334.727C795.828 333.988 796.025 333.276 796.221 332.515L795.903 332.001ZM231.606 346.859C230.546 357.818 230.952 370.31 238.29 379.253C242.869 384.835 248.858 386.502 255.749 387.015Q257.674 387.152 259.604 387.2C254.429 392.066 247.288 393.744 240.33 393.479C232.472 393.181 225.171 390.042 219.895 384.115C218.358 382.388 216.966 380.515 215.527 378.706C220.86 391.865 232.18 401.347 245.156 406.801C256.301 411.486 270.179 412.471 281.507 407.844C292.233 403.462 300.716 394.179 305.137 383.569C309.202 373.814 308.02 364.779 304.388 355.122C304.518 357.537 304.596 359.967 304.797 362.376C304.801 372.049 302.908 380.242 295.889 387.346C289.913 393.393 281.227 397.513 272.665 397.504C268.76 397.5 264.891 397.132 261.39 395.287L261.36 394.928L261.179 394.787C270.861 393.8 277.991 392.784 284.629 384.715C289.359 378.965 290.456 372.04 290.514 364.852C290.524 363.658 290.737 361.976 290.485 360.823C290.427 360.561 290.306 360.317 290.216 360.064C288.763 361.475 288.947 364.11 288.645 366.067C286.512 379.876 272.225 382.898 260.858 384.987C265.936 380.882 273.222 377.581 274.032 370.352C274.319 367.795 273.775 365.219 273.137 362.754C271.007 368.22 268.728 371.564 263.157 374.019C259.25 375.741 255.122 376.494 251.026 374.919C240.966 371.05 235.796 355.691 231.606 346.859ZM633.299 379.695C622.799 380.845 613.536 383.889 603.984 388.379C624.049 388.19 629.712 394.572 646.18 403.638C652.463 406.195 659.969 406.674 666.312 403.983C668.345 403.121 670.775 401.822 671.553 399.591C672.061 398.133 671.553 396.601 670.788 395.34C665.933 387.338 653.19 382.341 644.488 380.522C640.88 379.767 636.983 379.272 633.299 379.695ZM784.577 404.547C778.083 407.366 771.59 408.94 764.51 409.368C761.036 409.579 751.208 408.589 748.463 409.767L748.235 409.32L748.135 409.744L751.492 411.183C760.917 413.685 770.929 414.037 779.641 409.012C781.298 408.056 784.197 406.605 784.853 404.813L784.577 404.547ZM301.864 407.035C293.713 414.831 283.759 417.452 272.625 417.18C261.057 416.897 244.799 414.423 233.508 411.746C234.95 412.634 236.38 413.589 237.857 414.415C251.414 421.735 266.35 425.337 281.559 420.776C288.746 418.621 296.834 413.884 301.604 408.074L301.864 407.035ZM599.208 415.214C597.225 416.837 595.713 418.241 595.472 420.923C595.234 423.552 596.4 425.933 598.174 427.808C601.006 430.801 605.379 432.511 609.482 432.404C612.892 432.316 616.189 430.973 618.489 428.422C619.41 427.401 620.151 426.343 620.806 425.139C621.478 423.002 621.941 421.478 620.804 419.375C620.35 418.533 619.966 418.055 619.105 417.596C614.887 419.948 615.875 428.933 606.893 426.365C605.17 425.872 604.008 425.034 603.117 423.466C601.759 421.077 602.597 417.312 600.751 415.399L599.208 415.214ZM746.856 426.185C743.958 426.536 741.341 426.992 738.554 427.88C744.859 433.382 748.627 440.826 749.18 449.22C749.365 452.026 749.019 454.698 748.592 457.46C747.325 451.73 746.139 441.83 740.916 438.314C739.292 437.221 737.305 437.033 735.43 437.476C731.922 438.304 729.166 440.571 727.393 443.664C726.596 445.056 725.946 446.463 725.418 447.975C732.638 450.952 738.249 454.262 741.516 461.803C745.641 471.327 743.591 484.107 739.702 493.387C733.837 507.377 726.791 504.934 727.705 522.466C725.116 518.182 721.661 511.143 716.596 509.577C716.453 509.533 716.302 509.523 716.154 509.495C714.893 510.785 713.578 512.049 712.369 513.386C715.48 519.958 718.478 525.127 716.022 532.497C714.561 536.883 710.74 541.792 711.504 546.496C712.299 547.807 713.235 548.421 714.71 548.751C718.126 549.518 721.976 548.753 724.841 546.766C728.091 544.511 730.25 540.931 731.81 537.366C736.216 527.299 736.77 515.962 740.723 505.675C744.754 495.184 753.598 487.603 755.391 476.188C758.124 458.797 756.637 442.55 751.491 425.77L746.856 426.185ZM184.023 435.361C184.067 448.815 186.902 462.354 196.84 472.194C201.315 476.625 206.9 479.422 213.28 479.399C216.483 479.387 219.476 478.562 222.533 477.715C211.324 473.546 200.545 468.044 195.379 456.659C194.189 454.035 192.159 449.905 192.761 447.024L193.403 447.454C198.616 454.462 204.364 460.064 213.491 461.308C215.571 461.591 217.684 461.653 219.78 461.697C214.282 457.34 211.615 452.696 208.623 446.489C213.695 450.263 219.034 452.93 225.032 454.931L224.323 454.385C220.194 451.179 216.755 447.357 212.852 443.919C204.619 436.667 194.377 436.278 184.023 435.361ZM292.332 436.009C291.015 436.775 289.226 437.348 288.701 438.883C286.928 444.068 286.624 449.86 284.781 455.198C282.953 460.492 277.716 470.698 278.397 476.102C278.653 478.137 281.057 481.537 282.168 483.28C285.355 488.283 289.769 493.443 291.58 499.133C292.657 502.515 292.67 506.18 293.947 509.515C296.175 515.335 300.091 518.888 298.761 525.688C298.358 527.747 297.131 529.725 295.881 531.385L295.195 531.608C293.953 528.531 296.425 523.942 295.342 520.317C293.769 515.054 289.537 510.682 287.698 505.329C287.482 504.703 287.247 504.081 287.025 503.457C287.742 511.37 286.635 515.793 281.869 522.17C283.189 512.262 282.143 504.246 275.961 496.173C270.173 488.614 258.557 479.563 259.869 469.033C261.044 459.602 268.342 450.182 271.992 441.446C267.012 441.383 262.446 441.002 257.635 439.676L249.431 436.618C244.412 448.699 242.988 463.044 248.026 475.393C252.575 486.544 261.985 494.877 266.941 506.066C268.733 510.111 269.807 514.199 270.28 518.599C271.573 530.636 268.959 545.43 282.948 551.39C286.707 552.991 291.949 553.662 295.839 552.134C299.715 550.611 303.006 547.191 304.557 543.356C309.433 531.293 303.421 518.839 299.453 507.615C297.938 503.326 296.743 498.923 295.617 494.519C293.934 487.936 293.479 480.819 293.02 474.047C292.595 467.762 293.218 438.422 292.58 436.482C292.47 436.146 292.477 436.169 292.332 436.009ZM798.162 465.471C792.591 474.294 787.944 479.899 778.871 485.268C785.652 483.913 791.633 481.811 795.772 475.855C796.465 474.857 797.051 473.766 797.641 472.705C798.335 473.022 798.639 472.963 798.941 473.744C800.394 477.515 798.122 485.872 796.357 489.426C795.643 490.864 794.658 492.262 793.698 493.542C791.586 495.638 789.346 497.792 786.762 499.304C785.556 500.009 779.572 502.163 779.006 503.064L779.667 503.455C787.314 501.358 794.617 498.927 798.82 491.678C802.186 485.873 805.049 475.68 803.225 469.082C802.825 467.635 802.258 466.719 801.153 465.685C800.079 465.425 799.264 465.394 798.162 465.471ZM312.423 504.354C315.987 520.456 319.023 535.619 316.83 552.243C315.798 560.057 313.381 567.891 310.425 575.181C307.344 582.777 300.914 592.22 300.731 600.394C300.615 605.53 302.914 609.129 306.936 612.194L307.499 612.076L307.158 611.068C304.772 608.824 302.722 607.085 302.583 603.563C302.314 596.745 307.638 592.092 310.062 586.227C312.698 579.845 314.054 572.955 315.91 566.328C321.448 546.552 324.962 540.505 318.589 519.415C317.101 514.49 315.18 508.73 312.423 504.354ZM220.236 506.216C222.796 515.532 226.803 524.108 235.461 529.225C239.733 531.75 244.547 532.762 249.403 531.5C251.324 531 253.123 530.098 254.775 529.008L256.518 527.306L256.32 526.727C247.234 526.609 243.226 527.66 236.003 520.289C232.445 516.657 229.758 512.175 227.054 507.903C224.797 507.324 222.525 506.641 220.236 506.216ZM233.565 508.445C236.732 510.377 240.23 512.985 243.732 514.149C240.986 511.139 237.763 508.706 233.565 508.445ZM320.105 511.75L320.57 511.75L320.105 511.75ZM557.739 521.356C554.835 525.183 551.132 529.927 551.88 535.014C552.335 538.11 554.199 549.109 555.927 550.982C560.168 546.975 562.275 542.959 562.458 536.955C562.601 532.264 561.147 524.915 557.739 521.356ZM704.389 529.451C697.142 539.933 691.721 551.044 694.211 564.115C696.615 576.734 705.505 580.769 710.112 591.108L710.496 591.951C711.851 580.314 698.584 570.594 697.581 557.447C696.832 547.63 701.068 540.079 704.454 531.253C704.697 530.619 704.734 530.061 704.389 529.451ZM681.095 564.861C680.789 575.492 683.494 585.681 690.979 593.561C693.453 596.166 700.831 602.671 703.714 604.643C700.011 595.511 690.178 590.796 685.639 581.893C683.838 578.361 682.321 566.177 681.095 564.861ZM541.924 579.839C547.297 591.133 557.487 601.479 569.428 605.662C570.765 606.13 571.984 606.408 573.401 606.537C563.577 601.569 557.29 595.398 549.833 587.447C547.519 584.98 544.786 581.542 541.924 579.839ZM555.088 580.933C560.164 584.634 576.935 591.979 582.729 592.55C577.277 589.404 560.738 581.783 555.088 580.933ZM322.717 581.858C320.449 588.828 317.213 594.951 313.7 601.342C312.496 603.533 310.408 606.281 309.668 608.564C309.568 608.872 309.719 609.784 309.818 610.115C313.732 609.148 316.654 606.544 318.708 603.119C321.87 597.849 323.804 587.887 322.717 581.858ZM535.482 588.359C536.157 594.373 538.238 599.326 543.042 603.26C545.374 605.169 548.799 607.202 551.819 607.633C545.928 603.849 541.607 599.851 538.364 593.565C537.559 592.006 536.799 589.442 535.482 588.359ZM582.633 592.75L583.245 592.75L582.633 592.75ZM334.157 593.926C334.911 608.028 343.511 619.918 344.048 633.887C344.758 652.365 328.047 661.385 333.832 682.61C335.214 687.682 337.803 692.356 341.745 695.894C344.735 698.578 351.269 702.561 355.528 702.296C355.68 702.286 355.828 702.245 355.978 702.219L355.971 701.984C347.801 697.111 339.648 689.367 337.272 679.841C332.078 659.013 352.794 651.119 348.108 629.463C346.492 621.997 342.044 615.988 339.233 609.033C338.107 606.247 335.507 595.268 334.157 593.926ZM662.193 603.75L662.56 603.75L662.193 603.75ZM573.135 606.75L573.745 606.75L573.135 606.75ZM551.633 607.75L552.245 607.75L551.633 607.75ZM354.69 621.25L355.151 621.25L354.69 621.25ZM354.761 621.834C357.856 628.918 361.175 635.791 361.693 643.628C362.841 661.038 351.64 673.29 366.289 688.96C364.823 685.431 363.606 682.063 362.738 678.34C366.82 671.998 373.21 667.504 375.246 659.928C376.898 653.019 376.233 648.334 374.055 641.687C374.647 662.539 368.715 658.957 361.016 673.438C362.094 658.474 367.022 648.956 361.603 633.855C360.267 630.133 358.152 625.655 355.622 622.584C355.303 622.197 355.127 622.098 354.761 621.834ZM587.635 623.25L588.245 623.25L587.635 623.25ZM588.635 623.75L589.245 623.75L588.635 623.75ZM589.632 624.25L590.245 624.25L589.632 624.25ZM415.252 639.93C414.559 645.766 414.808 652.871 412.632 658.334C410.657 663.291 406.412 667.316 402.846 671.159C391.63 683.248 381.368 695.925 381.745 713.267Q381.364 712.774 381.008 712.262Q380.652 711.751 380.323 711.222Q379.993 710.693 379.689 710.149Q379.386 709.604 379.111 709.046Q378.835 708.487 378.588 707.915Q378.341 707.343 378.122 706.759Q377.904 706.175 377.714 705.582Q377.525 704.988 377.366 704.385Q377.207 703.783 377.078 703.173Q376.949 702.564 376.85 701.948Q376.752 701.333 376.684 700.713Q376.617 700.094 376.58 699.472Q376.543 698.85 376.538 698.227Q376.532 697.604 376.558 696.981Q376.583 696.358 376.64 695.738Q376.697 695.117 376.784 694.5C378.577 680.957 386.383 676.779 382.938 660.96C380.784 668.792 376.099 676.098 374.52 683.003C374.396 683.544 374.273 684.075 374.167 684.621C371.687 700.895 376.044 711.671 385.723 724.933C388.289 728.447 391.173 731.239 394.614 733.893C388.612 722.313 382 709.447 386.352 696.087C392.787 676.332 416.649 676.077 416.362 650.118C416.326 646.952 416.435 643.411 415.642 640.337L415.252 639.93ZM634.723 644.821C639.277 657.692 647.855 669.462 642.449 683.608L642.964 683.735L643.496 683.212C646.846 678.564 647.64 674.273 646.686 668.571C645.619 662.191 639.494 648.793 634.723 644.821ZM413.711 702.342C408.66 714.448 408.921 725.184 413.263 737.361C414.739 741.498 416.543 745.835 416.804 750.264C417.357 759.642 409.992 765.249 414.374 775.793C416.894 781.859 422.672 786.322 428.609 788.784L431.289 789.51C430.896 788.669 431.013 788.61 430.163 788.129C424.926 785.166 420.818 779.39 419.221 773.629C417.542 767.572 419.02 762.315 420.521 756.472C424.528 740.876 415.639 733.75 413.809 719.644C413.09 714.096 414.889 707.533 413.711 702.342ZM367.229 704.338C365.126 711.999 364.626 721.069 368.777 728.146C370.785 731.57 373.897 734.345 377.82 735.3C379.635 735.742 381.534 735.523 383.369 735.339L383.707 734.729C378.159 732.976 373.112 731.338 370.25 725.802C366.291 718.141 369.044 711.372 367.229 704.338ZM406.188 704.75L406.595 704.75L406.188 704.75ZM588.029 714.79C592.055 723.1 595.913 731.609 592.868 741.011C588.723 753.809 575.675 760.756 574.993 775.308C574.843 778.513 575.284 781.777 576.675 784.693C577.948 787.363 580.101 789.841 583.014 790.716C585.784 791.549 588.982 790.778 591.435 789.373C592.091 788.997 592.687 788.544 593.293 788.094L592.792 787.68C588.621 788.164 584.726 788.145 581.254 785.317C579.088 783.553 578.249 781.086 578.035 778.368C576.594 760.059 605.57 750.234 596.7 727.061C595.149 723.009 592.176 718.341 588.946 715.428C588.561 715.081 588.426 715.022 588.029 714.79ZM343.575 716.133L361.336 818.696C363.799 833.335 365.108 848.277 368.108 862.793C363.35 851.041 358.945 839.028 355.562 826.802C353.014 817.595 351.196 807.867 348.05 798.872C345.345 814.038 341.129 827.915 329.543 838.658C334.552 857.721 345.829 888.391 356.795 904.668C378.312 916.138 402.685 923.92 426.362 929.457Q412.638 895.074 401.861 859.657C396.698 843.101 390.914 824.551 389.245 807.288Q394.079 821.602 399.529 835.693Q404.979 849.784 411.034 863.626Q417.089 877.468 423.739 891.034Q430.388 904.6 437.618 917.866C440.945 923.939 445.098 929.482 448.486 935.487C458.317 937.566 499.518 944.807 508.061 943.026C513.609 941.869 519.52 938.101 524.612 935.534C539.319 928.122 553.721 920.177 568.25 912.428C581.47 905.093 601.205 895.121 612.509 885.904C612.876 868.491 621.342 851.109 627.938 835.251C640.131 805.939 658.86 761.07 657.83 729.633C653.869 742.35 650.564 755.25 645.903 767.744C627.07 818.221 587.308 895.278 537.849 920.93C524.731 927.734 503.28 930.339 489.168 925.678C477.824 921.932 471.284 910.589 466.309 900.49C458.611 884.863 453.991 867.984 445.336 852.787C440.058 843.519 432.691 836.025 426.563 827.394C416.882 813.759 409.881 798.76 403.044 783.56C396.508 783.813 390.516 782.177 385.538 777.746Q385.058 777.325 384.601 776.88Q384.143 776.436 383.708 775.969Q383.273 775.501 382.863 775.013Q382.452 774.524 382.067 774.016Q381.681 773.507 381.322 772.98Q380.963 772.452 380.631 771.907Q380.298 771.362 379.994 770.801Q379.69 770.24 379.414 769.665Q379.139 769.089 378.893 768.5Q378.647 767.912 378.431 767.311Q378.215 766.711 378.029 766.1Q377.844 765.489 377.689 764.87Q377.535 764.251 377.412 763.625Q377.289 762.999 377.198 762.367Q377.106 761.735 377.047 761.1Q376.988 760.465 376.961 759.827C376.848 756.501 377.614 753.402 378.635 750.265C370.518 748.858 363.288 746.374 358.299 739.263C354.305 733.57 353.558 727.007 353.881 720.262C350.184 719.239 347.068 717.623 343.575 716.133ZM542.225 734.25L542.593 734.25L542.225 734.25ZM390.147 747.358C388.892 752.303 388.627 757.424 391.336 761.956C394.178 766.709 398.865 768.842 403.882 770.55C401.906 768.013 400.373 766.092 399.699 762.876C399.44 760.684 399.488 757.573 398.479 755.644C397.202 757.819 398.722 764.454 399.078 767.066C392.929 761.67 391.302 756.728 390.781 748.636C390.725 747.751 390.874 748.211 390.147 747.358ZM480.547 765.845C480.626 775.437 479.678 780.408 475.884 789.197C476.265 791.476 476.892 798.327 478.64 799.734L479.06 799.378C481.521 791.724 487.466 777.898 483.63 770.211C482.833 768.612 481.718 767.183 480.547 765.845ZM557.655 786.335C555.657 791.335 554.057 798.024 556.198 803.203C557.04 805.241 558.645 807 560.741 807.778C561.53 808.071 562.327 808.143 563.156 808.205L563.01 807.298C562.873 807.204 562.735 807.113 562.6 807.017C560.146 805.28 557.184 801.424 556.762 798.394C556.228 794.566 558.566 789.834 557.655 786.335ZM365.229 918.744C367.841 922.461 370.422 925.936 373.745 929.051C388.165 942.57 412.182 952.4 431.491 955.771C450.372 959.067 468.128 955.474 486.391 950.838L492.513 949.278C482.029 947.855 471.37 947.757 460.845 946.448C441.082 943.99 420.568 939.086 401.514 933.328C393.596 930.935 386.028 927.844 378.483 924.479C374.314 922.62 369.609 919.89 365.229 918.744Z"/>
	<path d="M488.502 60.881L489.077 60.6031L488.502 60.881Z"/>
	<path d="M668.831 68.7876L668.553 68.5831L668.831 68.7876Z"/>
	<path d="M518.542 74.4604L518.045 74.0966L518.542 74.4604Z"/>
	<path d="M518.542 74.4604C518.84 74.658 519.343 74.9192 519.574 75.1845C519.242 75.0514 518.834 74.6762 518.542 74.4604Z"/>
	<path d="M495.821 76.2492L495.585 76.0513L495.821 76.2492Z"/>
	<path d="M596.797 84.3839L596.503 84.1281L596.797 84.3839Z"/>
	<path d="M568.837 92.3417L568.503 92.1264L568.837 92.3417Z"/>
	<path d="M595.316 104.304L595.004 104.091L595.316 104.304Z"/>
	<path d="M443.197 109.718L443.469 109.956L443.197 109.718Z"/>
	<path d="M364.735 135.909L364.998 135.628L364.735 135.909Z"/>
	<path d="M268.923 195.435C263.695 194.886 258.291 193.521 253.814 190.685C247.421 186.636 245.099 181.361 243.385 174.32C246.45 176.452 248.345 180.322 250.957 183.012C255.902 188.102 262.862 191.829 268.923 195.435Z"/>
	<path d="M251.267 206.39L251.01 206.11L251.267 206.39Z"/>
	<path d="M338.11 225.959L338.293 225.648L338.11 225.959Z"/>
	<path d="M584.868 302.885C593.847 298.383 603.44 295.891 613.386 294.692C621.889 293.587 629.677 296.016 636.947 300.239C626.919 299.169 617.219 298.503 607.131 299.417C599.552 299.777 592.259 301.291 584.868 302.885Z"/>
	<path d="M303.263 298.414L303.003 298.121L303.263 298.414Z"/>
	<path d="M434.661 299.524C438.68 298.701 442.533 298.411 446.628 298.215C458.332 297.862 470.524 298.743 481.691 302.496C493.329 306.407 503.492 312.279 516.148 312.624C530.36 313.011 542.494 307.023 555.809 303.197C561.535 301.552 567.247 300.828 573.149 300.239C568.152 301.86 563.457 303.986 558.778 306.363C550.227 311.127 541.366 316.114 532.007 319.07C503.925 327.941 490.36 313.977 466.063 305.271C455.753 301.577 445.522 300.148 434.661 299.524Z"/>
	<path d="M392.475 327.418C402.952 322.571 413.968 320.733 425.385 319.705C447.652 317.178 469.811 324.401 488.615 335.883C479.032 332.609 469.619 329.824 459.737 327.589C438.393 322.998 413.913 322.882 392.475 327.418Z"/>
	<path d="M556.764 332.633L557.566 332.181L556.764 332.633Z"/>
	<path d="M556.503 332.874L556.764 332.633L556.503 332.874Z"/>
	<path d="M445.893 346.138C421.62 342.206 390.386 342.193 369.598 357.381C362.049 362.896 356.628 370.749 352.553 379.061C351.149 381.925 349.955 385.327 348.16 387.942C348.169 386.321 348.331 384.953 348.693 383.371C351.866 370.649 358.076 356.843 369.795 349.82C389.087 338.257 416.224 337.438 437.49 343.04C440.226 343.76 443.501 344.613 445.893 346.138Z"/>
	<path d="M589.003 345.875L589.273 345.585L589.003 345.875Z"/>
	<path d="M169.216 346.312L169.405 346.002L169.216 346.312Z"/>
	<path d="M445.893 346.138L446.475 346.393L445.893 346.138Z"/>
	<path d="M345.723 411.177C352.244 394.654 365.429 380.404 381.799 373.334Q383.874 372.438 386.017 371.719Q388.16 371.001 390.357 370.466Q392.553 369.93 394.786 369.582Q397.019 369.233 399.274 369.074C416.29 367.733 449.856 372.232 465.877 378.608C475.099 382.278 485.706 391.381 495.978 387.231C499.262 385.904 501.464 383.332 502.661 380.033C505.226 372.962 503.954 363.523 502.691 356.303C508.058 365.146 511.518 374.319 509.035 384.777C507.722 390.308 504.691 395.388 499.704 398.316C494.18 401.561 488.395 401.037 482.385 399.984C486.696 404.764 490.31 409.404 492.884 415.345C501.662 435.602 502.306 475.397 501.144 497.723Q500.921 502.642 500.125 507.501L499.891 507.356C499.608 491.897 499.34 476.483 496.861 461.183C493 436.626 491.282 433.487 471.234 418.865C453.91 406.23 434.318 394.565 412.027 398.105C398.05 400.325 388.228 407.451 379.619 418.423C377.125 421.603 374.826 425.583 371.793 428.229C368.867 430.782 365.59 431.778 361.731 431.688C368.181 428.87 369.677 427.551 373.862 421.786C367.893 423.895 361.646 425.168 355.49 426.611C365.034 420.547 371.456 412.28 379.44 404.52C392.329 391.992 416.133 389.166 433.218 389.626C413.247 382.064 392.602 378.737 372.471 387.887C360.917 393.139 354.443 402.498 345.723 411.177Z"/>
	<path d="M402.57 421.118C396.912 424.601 391.642 428.769 386.031 432.354C379.547 436.497 374.252 438.437 366.516 436.753L367.718 436.589L367.665 436.924L367.279 436.246C370.688 435.508 373.547 434.911 376.48 432.89C379.938 430.508 382.442 426.36 385.076 423.138C393.113 413.309 404.093 407.714 416.482 405.657C423.693 405 430.726 405.322 437.816 406.856C452.084 409.943 466.291 419.816 473.948 432.344C475.182 434.362 476.002 436.135 475.405 438.504L474.709 438.803C473.521 438.227 472.09 437.4 470.751 437.339C464.652 437.064 454.304 443.939 448.829 446.456C438.239 451.323 425.952 453.88 414.333 452.315C401.341 450.564 389.581 444.57 381.604 434.047C386.195 436.132 390.334 439.143 394.966 441.236C410.624 448.313 426.016 446.618 442.25 442.923C451.422 440.452 460.453 436.671 469.968 435.864C460.693 428.974 451.257 422.615 440.93 417.382Q441.157 418.942 441.264 420.514C441.572 425.238 440.143 430.262 436.867 433.767C433.189 437.702 428.073 439.202 422.822 439.409C417.358 439.625 411.356 438.862 407.267 434.892C403.277 431.02 402.79 426.341 402.57 421.118ZM412.374 415.721C410.505 417.885 409.404 419.506 409.58 422.465C409.747 425.261 411.228 427.702 413.326 429.498C416.2 431.957 419.98 433.025 423.725 432.684C427.131 432.373 430.459 430.828 432.529 428.042C433.443 426.811 434.028 425.474 434.554 424.045C434.595 421.547 434.523 419.255 434.101 416.775L433.407 416.103C428.624 419.507 431.806 428.325 421.902 426.529C419.375 426.071 417.575 424.947 416.175 422.78C414.882 420.781 413.922 418.387 413.123 416.155L412.374 415.721Z"/>
	<path d="M345.541 411.418L345.723 411.177L345.541 411.418Z"/>
	<path d="M627.009 483.075C612.432 485.548 599.34 485.439 586.804 476.59C574.029 467.571 568.054 452.704 565.557 437.77C566.921 438.714 570.087 445.523 571.32 447.528C575.328 454.048 579.562 460.505 584.942 465.99C593.034 474.242 603.696 481.29 615.421 482.539C619.15 482.936 622.997 482.602 626.751 482.638L627.009 483.075Z"/>
	<path d="M405.839 466.35L402.957 465.779C404.206 464.892 410.206 465.331 412.132 465.153C417.076 464.695 421.486 463.428 426.139 461.701C433.064 459.129 439.771 455.598 446.013 451.657C453.348 447.025 460.34 441.658 468.684 438.974L469.339 439.304C468.878 443.002 458.843 452.4 455.685 455.042C441.434 466.961 423.67 467.956 405.839 466.35Z"/>
	<path d="M571.249 439.251L570.629 439.253L571.249 439.251Z"/>
	<path d="M379.842 465.689C379.247 465.023 378.727 464.257 378.184 463.545C379.293 463.608 382.527 466.624 383.683 467.401Q387.549 470.008 391.797 471.928C398.019 474.732 404.446 476.046 411.259 476.124C432.632 476.367 452.5 461.899 467.167 447.515C467.185 447.627 467.225 447.737 467.221 447.85C467.097 450.786 459.435 459.402 457.178 461.625C445.715 472.919 431.832 480.879 415.318 480.669C401.161 480.489 389.668 475.777 379.842 465.689Z"/>
	<path d="M444.801 484.87L445.498 484.619L444.801 484.87Z"/>
	<path d="M444.386 485.736L444.801 484.87L444.386 485.736Z"/>
	<path d="M444.119 485.881L444.386 485.736L444.119 485.881Z"/>
	<path d="M402.926 497.581L402.826 497.087C406.037 496.263 410.305 497.616 413.797 497.276C424.99 496.188 433.378 490.744 443.292 486.249L444.119 485.881C442.501 487.95 439.905 489.598 437.714 491.03C427.165 497.926 415.199 500.18 402.926 497.581Z"/>
	<path d="M418.562 598.123L418.197 597.774C425.857 566.063 442.653 532.747 469.314 512.933L469.755 513.682C465.107 522.754 456.929 532.114 451.574 541.225C446.164 550.429 441.755 560.173 436.716 569.575C431.356 579.577 425.246 588.967 418.562 598.123Z"/>
	<path d="M618.128 597.73L618.397 597.946L618.128 597.73Z"/>
	<path d="M452.598 656.759L452.881 656.553L452.598 656.759Z"/>
	<path d="M702.827 699.384L702.503 699.118L702.827 699.384Z"/>
	<path d="M310.126 746.088L310.404 745.534L310.126 746.088Z"/>
	<path d="M376.72 968.28C376.535 968.185 376.348 968.093 376.165 967.995C371.819 965.667 367.7 961.04 364.073 957.65C338.514 933.763 322.011 902.087 312.124 868.817C302.189 835.384 297.242 799.778 304.369 765.281C305.674 758.965 307.048 751.772 310.126 746.088L310.071 746.636C308.779 758.643 305.449 769.968 305.377 782.204C305.077 833.192 328.628 910.817 360.67 950.862C365.58 956.998 372.096 962.056 376.72 968.28Z"/>
	<path d="M886.217 805.219L886.436 805.438L886.217 805.219Z"/>
	<path d="M685.077 835.846L685.497 835.124L685.077 835.846Z"/>
	<path d="M684.633 836.26L685.077 835.846L684.633 836.26Z"/>
	<path d="M730.183 860.281L730.449 860.014L730.183 860.281Z"/>
	<path d="M302.316 867.128L301.512 866.502L302.316 867.128Z"/>
	<path d="M302.316 867.128L302.437 868.497L302.316 867.128Z"/>
	<path d="M302.678 870.369L302.56 869.003L302.678 870.369Z"/>
	<path d="M302.678 870.369L303.842 871.263L302.678 870.369Z"/>
	<path d="M303.842 871.263L303.936 871.983L303.842 871.263Z"/>
	<path d="M611.709 904.276L611.929 904.048L611.709 904.276Z"/>
	<path d="M466.173 987.507C472.393 985.588 478.575 982.728 484.504 980.051C502.341 971.995 518.484 962.503 535.276 952.534C554.761 940.966 574.387 929.754 593.395 917.386C599.707 913.279 605.509 908.508 611.709 904.276C610.702 906.069 609.342 907.629 607.961 909.141C587.289 931.774 550.622 958.731 522.835 971.481Q513.696 975.633 504.171 978.797Q494.645 981.96 484.838 984.101C478.83 985.463 472.331 987.246 466.173 987.507Z"/>
	<path d="M376.72 968.28L377.095 968.579L376.72 968.28Z"/>
	<path d="M377.095 968.579L377.498 968.905L377.095 968.579Z"/>
</svg>
